<?xml version="1.0" standalone="no"?><!DOCTYPE svg PUBLIC "-//W3C//DTD SVG 1.1//EN" "http://www.w3.org/Graphics/SVG/1.1/DTD/svg11.dtd"><svg t="1634990160597" class="icon" viewBox="0 0 1024 1024" version="1.1" xmlns="http://www.w3.org/2000/svg" p-id="3107" xmlns:xlink="http://www.w3.org/1999/xlink" width="200" height="200"><defs><style type="text/css"></style></defs><path d="M512 142.9c-31.1 0-52.3 0.8-88.9 0V62.8L311.9 174 423 285v-75.6c29.1-3 41.3-3 88.9-4.4 191.2-5.7 346.9 155.7 346.9 346.9S703.1 898.8 511.9 898.8 165 743.1 165 551.9c0-44.4 8.9-88.9 24.5-126.7 13.3-13.3 15.5-24.5 11.1-37.8-4.4-13.3-13.3-22.2-31.1-22.2-22.3 0-35.6 31.1-35.6 31.1-20 46.7-31.1 102.3-31.1 155.7 0 226.9 182.4 409.2 409.2 409.2 226.9 0 409.2-182.4 409.2-409.2-0.1-226.8-182.4-409.1-409.2-409.1z" fill="#515151" p-id="3108"></path></svg>