<?xml version="1.0" standalone="no"?><!DOCTYPE svg PUBLIC "-//W3C//DTD SVG 1.1//EN" "http://www.w3.org/Graphics/SVG/1.1/DTD/svg11.dtd"><svg t="1634969744772" class="icon" viewBox="0 0 1060 1024" version="1.1" xmlns="http://www.w3.org/2000/svg" p-id="4276" xmlns:xlink="http://www.w3.org/1999/xlink" width="207.03125" height="200"><defs><style type="text/css"></style></defs><path d="M927.535784 467.606416c-11.354971-200.60449-158.969596-363.359075-355.789095-401.208979S181.892681 134.527263 98.622893 316.206801s-30.279923 397.423989 124.904682 522.328671 378.499037 124.904682 533.683643 3.78499c7.569981-7.569981 18.924952-7.569981 30.279923-3.78499 11.354971 3.78499 15.139961 11.354971 18.924951 22.709942 0 11.354971-3.78499 18.924952-11.354971 26.494933C617.166574 1024 367.35721 1024 189.462662 883.955356s-238.454393-378.499037-147.614624-586.673507S348.432258-28.227323 571.746689 5.837591 965.385688 225.367032 984.31064 448.681464l22.709942-22.709942c11.354971-11.354971 30.279923-11.354971 41.634894 0 11.354971 11.354971 11.354971 30.279923 0 41.634894l-83.269788 83.269788c-3.78499 3.78499-11.354971 7.569981-18.924952 7.569981s-15.139961-3.78499-18.924952-7.569981l-83.269788-83.269788c-11.354971-11.354971-11.354971-30.279923 0-41.634894 11.354971-11.354971 30.279923-11.354971 41.634894 0l41.634894 41.634894z m-253.594355-3.784991c11.354971 7.569981 15.139961 18.924952 15.139962 34.064914s-7.569981 26.494933-15.139962 34.064913l-200.604489 151.399615c-11.354971 7.569981-30.279923 11.354971-41.634894 3.78499-15.139961-7.569981-22.709942-22.709942-22.709942-37.849904v-302.799229c0-15.139961 7.569981-30.279923 22.709942-37.849904s30.279923-3.78499 41.634894 3.784991l200.604489 151.399614zM465.766959 380.551637v230.884413l155.184605-117.334702-155.184605-113.549711z" p-id="4277" fill="#515151"></path></svg>